<?xml version="1.0" encoding="UTF-8"?>
<svg version="1.1" xmlns="http://www.w3.org/2000/svg" width="600" height="600">
<path d="M0 0 C0.93457031 0.72574219 1.86914062 1.45148438 2.83203125 2.19921875 C14.05786879 11.1445571 24.23674964 20.60462228 33 32 C33.79921875 32.98355469 34.5984375 33.96710938 35.421875 34.98046875 C47.45844992 49.90469476 57.84338756 67.57425931 63.07666016 86.09082031 C66.07268472 96.53236785 70.04970597 100.87176438 79 107 C81.73933358 109.25453743 84.37508373 111.61371248 87 114 C87.62003906 114.55429688 88.24007813 115.10859375 88.87890625 115.6796875 C112.47029994 137.88895913 126.20860771 171.87958022 127.203125 203.98828125 C127.73540737 240.21738597 116.86983465 274.17255292 92 301 C91.49452637 301.54930176 90.98905273 302.09860352 90.46826172 302.66455078 C69.32649223 325.38849198 38.39294292 342.72118232 6.80985796 344.09528792 C4.26661908 344.13718194 1.72505942 344.14769219 -0.81852722 344.14717102 C-1.79044945 344.15084771 -2.76237167 344.1545244 -3.76374608 344.1583125 C-7.01201779 344.16930214 -10.26025745 344.17318522 -13.50854492 344.17700195 C-15.84163005 344.18327041 -18.17471419 344.18991755 -20.50779724 344.19691467 C-28.16534739 344.21792057 -35.82289765 344.22831718 -43.48046875 344.23828125 C-46.1233299 344.24233078 -48.76619095 344.24644777 -51.4090519 344.25063133 C-62.41103755 344.26764083 -73.41302226 344.28213005 -84.41501904 344.28938007 C-87.26618132 344.29128961 -90.1173436 344.29320999 -92.96850586 344.29516602 C-93.67704869 344.29564976 -94.38559151 344.2961335 -95.11560533 344.2966319 C-106.56685069 344.30491374 -118.01799097 344.33022055 -129.46919056 344.36274669 C-141.25780016 344.39595475 -153.04635664 344.41384133 -164.83501321 344.41702431 C-171.44084596 344.4191772 -178.04654325 344.42819776 -184.65233421 344.45348549 C-190.87815419 344.4769332 -197.10370075 344.48093279 -203.3295536 344.47072411 C-205.59971151 344.4702326 -207.86988364 344.47643767 -210.13999939 344.49028015 C-227.4294525 344.58970371 -244.44209089 343.2327947 -260.6875 336.8125 C-261.83810913 336.37139893 -261.83810913 336.37139893 -263.01196289 335.92138672 C-280.6715759 328.9358434 -295.18614087 319.01373782 -309 306 C-309.66386719 305.40058594 -310.32773437 304.80117188 -311.01171875 304.18359375 C-333.91657895 282.67253843 -347.5436941 249.65781563 -349.12451172 218.54980469 C-350.33259571 179.5459502 -337.98001641 145.066827 -311.44140625 116.21875 C-306.69009824 111.30883519 -302.14968283 107.46037657 -296.375 103.8125 C-287.33972722 97.62364898 -285.28736459 86.77971562 -282.00878906 76.88183594 C-267.74791769 36.1424057 -232.51662854 2.41373102 -195 -17 C-194.4004248 -17.31275879 -193.80084961 -17.62551758 -193.18310547 -17.94775391 C-132.55785146 -49.11648197 -53.64300059 -42.28330635 0 0 Z M-184 76 C-184.66 76.99 -185.32 77.98 -186 79 C-184.98164063 79.268125 -183.96328125 79.53625 -182.9140625 79.8125 C-154.46245454 87.57388379 -128.4018 102.5206663 -110 126 C-109.29901147 127.65252452 -108.62632717 129.31775849 -108 131 C-115.39147087 138.43772853 -122.78827302 145.87010871 -130.19200706 153.29563141 C-133.62936366 156.7434433 -137.06482781 160.19309843 -140.49609375 163.64697266 C-143.80500151 166.97754662 -147.11871347 170.30326893 -150.43587112 173.62562561 C-151.70313943 174.89660089 -152.9686407 176.16934049 -154.23237228 177.4438324 C-155.99716864 179.22306092 -157.76803736 180.99601877 -159.54052734 182.76757812 C-160.06632889 183.30057022 -160.59213043 183.83356232 -161.13386536 184.38270569 C-164.77189568 188 -164.77189568 188 -167 188 C-168.1053347 186.37485926 -169.13353881 184.69701265 -170.125 183 C-178.4070217 169.69753627 -190.25545984 162.07416224 -205.4453125 158.41015625 C-220.18915505 156.04302557 -233.71530207 159.78498648 -246 168 C-256.72934202 176.41214119 -264.92937016 189.0021261 -266.82421875 202.72265625 C-266.91123047 203.84994141 -266.91123047 203.84994141 -267 205 C-267.06832031 205.78246094 -267.13664062 206.56492187 -267.20703125 207.37109375 C-267.82289535 221.62720708 -262.46348004 234.73517453 -253.42578125 245.54296875 C-244.41196569 254.67290432 -232.06595903 261.69226336 -219.04583073 262.13422108 C-217.39809317 262.14363545 -215.75031874 262.14752797 -214.10255432 262.14717102 C-213.19359325 262.15084771 -212.28463218 262.1545244 -211.34812683 262.1583125 C-208.29531128 262.16934558 -205.24252977 262.1731926 -202.18969727 262.17700195 C-200.0033304 262.18326704 -197.81696461 262.18991388 -195.63059998 262.19691467 C-188.44254294 262.21795753 -181.2544857 262.22831941 -174.06640625 262.23828125 C-171.59024482 262.24232916 -169.11408349 262.24644609 -166.63792229 262.25063133 C-155.66832755 262.2685929 -144.69873741 262.28296938 -133.72913056 262.29080774 C-131.72249654 262.29224616 -129.71586252 262.29369754 -127.70922852 262.29516602 C-126.71289001 262.29589163 -126.71289001 262.29589163 -125.69642346 262.2966319 C-114.95157313 262.30492097 -104.20683453 262.33023855 -93.46203292 262.36274669 C-82.41596891 262.39589206 -71.36996441 262.41350349 -60.32385105 262.41702431 C-54.12786492 262.41937113 -47.9320553 262.42828346 -41.73611641 262.45348549 C-35.90104178 262.47683545 -30.06625899 262.48097148 -24.23114967 262.47072411 C-22.09673337 262.47023027 -19.96230236 262.47650545 -17.82793045 262.49028015 C0.14027394 262.59969428 15.41986976 260.45255992 29.28125 247.80078125 C39.73914239 236.84376218 45.45727475 223.0247303 45.20703125 207.828125 C44.10597873 192.78733207 37.76530144 180.6134883 26.8125 170.375 C16.41098253 161.59149636 4.59810444 157.54961692 -9 158 C-8.98428955 157.34628418 -8.9685791 156.69256836 -8.95239258 156.01904297 C-8.33709676 126.49003617 -14.82592582 101.33317243 -35 79 C-35.77085937 78.14664063 -36.54171875 77.29328125 -37.3359375 76.4140625 C-50.6934869 62.36486005 -68.26293663 52.72173997 -87 48 C-87.80179688 47.78730469 -88.60359375 47.57460937 -89.4296875 47.35546875 C-123.71385168 39.33274346 -159.38904339 51.57835844 -184 76 Z " fill="#1875D2" transform="translate(411,131)"/>
<path d="M0 0 C1.09626147 0.83866285 2.19261596 1.67720412 3.2890625 2.515625 C8.96971579 6.97385923 8.96971579 6.97385923 11 9 C11 12.66199856 9.87011991 13.48175207 7.38270569 15.99055481 C6.84971359 16.51276108 6.3167215 17.03496735 5.76757812 17.57299805 C5.2116246 18.12938965 4.65567108 18.68578125 4.08287048 19.2590332 C2.23935068 21.10045924 0.38542415 22.93102632 -1.46875 24.76171875 C-2.7473559 26.03473081 -4.02530203 27.30840584 -5.3026123 28.5827179 C-8.6695122 31.93815244 -12.04532349 35.28448175 -15.42303467 38.62902832 C-18.86685081 42.04218013 -22.30221106 45.46381909 -25.73828125 48.88476562 C-32.48391306 55.59820345 -39.23898435 62.3020578 -46 69 C-46.60967117 68.59193619 -47.21934235 68.18387238 -47.8474884 67.76344299 C-48.65167709 67.22606003 -49.45586578 66.68867706 -50.28442383 66.13500977 C-51.07972 65.60319595 -51.87501617 65.07138214 -52.69441223 64.52345276 C-76.09795827 49.05919793 -103.3150172 42.61663256 -131 48 C-151.92917459 52.50561934 -169.88318863 62.88318863 -185 78 C-184.44763672 78.17015625 -183.89527344 78.3403125 -183.32617188 78.515625 C-152.9296759 87.98462457 -126.3293059 103.09050486 -107 129 C-108.6006756 132.97526224 -111.37143556 135.64020304 -114.36767578 138.59472656 C-114.91416779 139.14151062 -115.46065979 139.68829468 -116.02371216 140.25164795 C-117.82621093 142.05275649 -119.63568396 143.84668247 -121.4453125 145.640625 C-122.69842367 146.89000495 -123.95109319 148.13982801 -125.20333862 149.39007568 C-128.49675955 152.67586872 -131.79614291 155.9556107 -135.09680176 159.23413086 C-138.46528994 162.58214253 -141.8281076 165.93583907 -145.19140625 169.2890625 C-151.78873176 175.86495296 -158.39236983 182.43446516 -165 189 C-168.85256478 187.71581174 -169.23480082 186.33097243 -171.25 182.875 C-179.22089273 170.01174305 -190.77280558 162.94937118 -205.4453125 159.41015625 C-220.23331083 157.03593633 -233.65236886 160.83037235 -246 169 C-256.30291002 176.89841193 -264.02914549 189.72459563 -265.82421875 202.72265625 C-265.88222656 203.47417969 -265.94023437 204.22570312 -266 205 C-266.06832031 205.78246094 -266.13664062 206.56492187 -266.20703125 207.37109375 C-266.80052069 221.10927513 -261.77155637 234.13934451 -253.23828125 244.75390625 C-248.35845714 249.6507629 -242.18138385 253.90930808 -236 257 C-237.60256669 260.9539611 -240.34116596 263.64370205 -243.30419922 266.6105957 C-243.84426605 267.15898605 -244.38433289 267.7073764 -244.94076538 268.27238464 C-246.72331177 270.07898106 -248.51338559 271.8778684 -250.3046875 273.67578125 C-251.5478575 274.92791719 -252.79094927 276.1801308 -254.03396606 277.43241882 C-256.63790462 280.05283337 -259.24619299 282.66883409 -261.85693359 285.2824707 C-265.20704696 288.63798452 -268.5406841 292.00937694 -271.87061882 295.38490009 C-274.43064099 297.97459914 -277.00177839 300.55303692 -279.57617569 303.12843895 C-280.81068876 304.36716838 -282.04106471 305.6100348 -283.26723862 306.85701942 C-284.97895354 308.59546982 -286.70562525 310.31754885 -288.43701172 312.03637695 C-288.94312988 312.55732941 -289.44924805 313.07828186 -289.97070312 313.61502075 C-291.40646362 315.02119446 -291.40646362 315.02119446 -294 317 C-298.27686219 316.90429773 -300.87241864 313.68777505 -303.8125 310.875 C-304.3480249 310.37000977 -304.8835498 309.86501953 -305.43530273 309.34472656 C-306.49450029 308.34281329 -307.55067287 307.33769058 -308.60351562 306.32910156 C-309.7033696 305.28231747 -310.82453234 304.25792089 -311.953125 303.2421875 C-334.50056131 282.3365548 -347.58599162 248.82546683 -349.12451172 218.54980469 C-350.33259571 179.5459502 -337.98001641 145.066827 -311.44140625 116.21875 C-306.69009824 111.30883519 -302.14968283 107.46037657 -296.375 103.8125 C-287.33972722 97.62364898 -285.28736459 86.77971562 -282.00878906 76.88183594 C-267.74791769 36.1424057 -232.51662854 2.41373102 -195 -17 C-194.4004248 -17.31275879 -193.80084961 -17.62551758 -193.18310547 -17.94775391 C-132.51390092 -49.13907788 -53.69780697 -42.24043428 0 0 Z " fill="#FEC007" transform="translate(411,131)"/>
<path d="M0 0 C1.09626147 0.83866285 2.19261596 1.67720412 3.2890625 2.515625 C8.96971579 6.97385923 8.96971579 6.97385923 11 9 C11 12.66199856 9.87011991 13.48175207 7.38270569 15.99055481 C6.84971359 16.51276108 6.3167215 17.03496735 5.76757812 17.57299805 C5.2116246 18.12938965 4.65567108 18.68578125 4.08287048 19.2590332 C2.23935068 21.10045924 0.38542415 22.93102632 -1.46875 24.76171875 C-2.7473559 26.03473081 -4.02530203 27.30840584 -5.3026123 28.5827179 C-8.6695122 31.93815244 -12.04532349 35.28448175 -15.42303467 38.62902832 C-18.86685081 42.04218013 -22.30221106 45.46381909 -25.73828125 48.88476562 C-32.48391306 55.59820345 -39.23898435 62.3020578 -46 69 C-46.60967117 68.59193619 -47.21934235 68.18387238 -47.8474884 67.76344299 C-48.65167709 67.22606003 -49.45586578 66.68867706 -50.28442383 66.13500977 C-51.07972 65.60319595 -51.87501617 65.07138214 -52.69441223 64.52345276 C-76.09795827 49.05919793 -103.3150172 42.61663256 -131 48 C-152.54463813 52.63811594 -170.47545491 63.47545491 -186 79 C-188.85694233 78.81216286 -191.6065504 78.51218138 -194.4375 78.125 C-226.3364882 74.38104391 -257.28329438 79.80810221 -284.828125 96.73828125 C-287 98 -287 98 -289 98 C-278.52240567 53.79190461 -247.16479195 14.3978514 -208.92333984 -9.28613281 C-204.36616913 -12.01977969 -199.71906587 -14.55802483 -195 -17 C-194.4004248 -17.31275879 -193.80084961 -17.62551758 -193.18310547 -17.94775391 C-132.51390092 -49.13907788 -53.69780697 -42.24043428 0 0 Z " fill="#FE3D00" transform="translate(411,131)"/>
<path d="M0 0 C2.34967707 0.503406 4.22015975 1.23467606 6.3788147 2.27267456 C9.3449744 3.16358052 12.02058344 3.40663463 15.11178589 3.43089294 C16.0596698 3.44068176 17.00755371 3.45047058 17.98416138 3.46055603 C19.01706299 3.46631149 20.0499646 3.47206696 21.11416626 3.47799683 C22.75364227 3.49284622 22.75364227 3.49284622 24.42623901 3.50799561 C28.04061717 3.5395948 31.65500847 3.56436192 35.2694397 3.58908081 C37.77479393 3.60965169 40.2801447 3.6306482 42.78549194 3.65205383 C48.70688447 3.70161722 54.62829997 3.74688618 60.54974151 3.7900762 C69.1368629 3.8530143 77.72391261 3.92463592 86.31097412 3.99520111 C98.33355276 4.09319309 110.35616797 4.18206128 122.3788147 4.27267456 C122.3788147 31.33267456 122.3788147 58.39267456 122.3788147 86.27267456 C93.19321566 86.43332923 93.19321566 86.43332923 78.64321518 86.47369003 C70.81442147 86.49574535 62.98580061 86.52362094 55.15713501 86.57443237 C48.95293499 86.61468064 42.74886619 86.64019604 36.54453921 86.64902854 C33.26848295 86.65418018 29.99288268 86.6682216 26.71692657 86.69559479 C8.16944594 86.84424743 -9.85511005 85.979975 -27.3086853 79.08517456 C-28.07285767 78.79328247 -28.83703003 78.50139038 -29.62435913 78.20065308 C-41.01103409 73.70810288 -52.16986228 68.11526175 -61.6211853 60.27267456 C-53.32608462 50.25237945 -43.98753751 41.12191818 -34.86368084 31.86310482 C-31.76460989 28.71763118 -28.6772973 25.56224621 -25.61459351 22.38131714 C-22.63625099 19.28850334 -19.63183862 16.22342413 -16.60709572 13.17599678 C-15.46324967 12.01438009 -14.32895841 10.84327204 -13.20474815 9.66264153 C-4.42227893 0.46003728 -4.42227893 0.46003728 0 0 Z " fill="#4CAF50" transform="translate(177.62118530273438,388.7273254394531)"/>
</svg>
